<svg xmlns="http://www.w3.org/2000/svg" fill="currentColor" class="css-gea78w" viewBox="0 0 140 30"><path d="m26.823 7.575-5.08 3.239c-.224-.286-.425-.516-.597-.765C19.188 7.2 16.45 5.98 13.061 6.64c-3.45.672-5.653 2.868-6.524 6.23-.968 3.743.586 7.636 3.737 9.637 2.445 1.553 5.059 1.686 7.718.703 1.876-.694 3.053-2.097 3.742-4.173h-6.57v-5.084h13.081c.269 1.906.13 3.756-.335 5.577-1.673 6.563-7.559 10.582-14.524 9.944-6.61-.606-11.9-5.361-13.134-11.81C-1.46 8.728 5.784.37 14.99.65c4.604.14 8.291 2.007 11.042 5.662.276.367.49.78.79 1.264zM97.94 28.968h-5.751c-.025-.451-.067-.864-.067-1.277-.006-3.126.004-6.253-.01-9.379-.003-.542-.034-1.099-.161-1.623-.358-1.477-1.39-2.32-2.834-2.393-1.517-.077-2.767.647-3.242 2.046-.258.762-.376 1.602-.39 2.41-.048 2.93-.026 5.86-.03 8.79v1.382h-5.822c-.021-.409-.06-.822-.062-1.235-.005-3.126.006-6.253-.013-9.379-.003-.58-.048-1.177-.198-1.735-.383-1.43-1.373-2.202-2.798-2.277-1.462-.078-2.725.605-3.197 1.937-.293.83-.42 1.75-.437 2.635-.055 2.89-.026 5.783-.03 8.674v1.38h-5.786V9.657h5.695l.182 1.988c1.707-1.733 3.55-2.626 5.818-2.568 2.29.058 4.114.96 5.523 2.85.556-.425 1.05-.796 1.536-1.174 2.075-1.61 4.446-1.987 6.952-1.475 3.135.641 5.117 3.147 5.171 6.559.067 4.141.027 8.284.029 12.426 0 .191-.041.382-.078.705zm-44.345-4.542c-1.67-.52-2.592-1.763-3.127-3.546h14.657c-.127-1.393-.122-2.606-.362-3.77-1.448-7.01-7.415-9.187-12.842-7.502-4.187 1.3-6.953 5.262-6.958 9.759-.005 4.303 2.773 8.122 6.929 9.53 4.387 1.487 9.128.134 11.814-3.38.18-.234.308-.506.493-.815l-4.11-2.797c-1.613 2.473-3.762 3.371-6.494 2.52zm1.572-10.627c2.234-.017 3.764 1.166 4.139 3.285h-8.417c.298-1.88 2.125-3.268 4.277-3.285zm84.737 15.153h-5.725c-.024-.403-.069-.813-.07-1.222-.006-3.123 0-6.246-.008-9.37-.001-.466-.008-.942-.099-1.396-.313-1.558-1.293-2.483-2.754-2.655-1.64-.194-3.064.522-3.65 1.99-.281.704-.41 1.51-.421 2.271-.047 3.005-.02 6.012-.02 9.018v1.349h-5.807V9.654h5.71l.175 1.89c.409-.317.71-.539.998-.776 2.242-1.854 4.789-2.125 7.46-1.243 2.66.878 4.262 3.317 4.288 6.392.035 4.06.011 8.12.007 12.18 0 .264-.051.527-.084.855zM101.936 1.24h5.718v27.713h-5.718V1.241zM30.983 28.905V9.625c1.887-.138 3.752-.078 5.715-.022v19.213c-.785.254-3.964.32-5.715.09zm80.657.045V9.65h5.72v19.3h-5.72zm6.353-24.794c-.017 1.964-1.59 3.475-3.575 3.437-1.92-.037-3.457-1.567-3.471-3.456-.015-1.923 1.584-3.499 3.548-3.495 1.987.003 3.516 1.539 3.498 3.514zM41.636 9.1c1.979.011 3.504 1.536 3.494 3.493a3.488 3.488 0 0 1-3.54 3.468c-1.943-.015-3.523-1.596-3.51-3.514.013-1.927 1.592-3.459 3.556-3.447z"/></svg>